Coordinates
nRows=136
nColumns=2
inDegrees=yes
endheader
time	ankle_angle_r	
2.87482	  9.368896	
2.93731	  9.292603	
2.99981	  9.292603	
3.0623	  9.338379	
3.1248	  9.262085	
3.1873	  9.384155	
3.24979	  9.399414	
3.31229	  9.353638	
3.37478	  9.368896	
3.43728	  9.323120	
3.49978	  9.292603	
3.56227	  9.368896	
3.62477	  9.353638	
3.68726	  9.414673	
3.74976	  9.475708	
3.81226	  9.368896	
3.87475	  9.521484	
3.93725	  9.399414	
3.99974	  9.368896	
4.06224	  9.384155	
4.12474	  9.338379	
4.18723	  9.460449	
4.24973	  9.384155	
4.31222	  9.353638	
4.37472	  9.414673	
4.43722	  9.307861	
4.49971	  9.277344	
4.56221	  9.353638	
4.6247	  9.277344	
4.6872	  9.384155	
4.7497	  9.353638	
4.81219	  9.338379	
4.87469	  9.384155	
4.93718	  9.307861	
4.99968	  9.292603	
5.06218	  9.353638	
5.12467	  9.323120	
5.18717	  9.429932	
5.24966	  9.429932	
5.31216	  9.445190	
5.37466	  9.552002	
5.43715	  9.368896	
5.49965	  9.368896	
5.56214	  9.429932	
5.62464	  9.368896	
5.68714	  9.429932	
5.74963	  9.368896	
5.81213	  9.368896	
5.87462	  9.399414	
5.93712	  9.277344	
5.99962	  9.262085	
6.06211	  9.353638	
6.12461	  9.262085	
6.1871	  9.353638	
6.2496	  9.384155	
6.3121	  9.384155	
6.37459	  9.414673	
6.43709	  9.353638	
6.49958	  9.277344	
6.56208	  9.323120	
6.62458	  9.338379	
6.68707	  9.414673	
6.74957	  9.429932	
6.81206	  9.414673	
6.87456	  9.460449	
6.93706	  9.414673	
6.99955	  9.429932	
7.06205	  9.429932	
7.12454	  9.429932	
7.18704	  9.521484	
7.24954	  9.536743	
7.31203	  9.460449	
7.37453	  9.445190	
7.43702	  9.399414	
7.49952	  9.353638	
7.56202	  9.429932	
7.62451	  9.338379	
7.68701	  9.460449	
7.7495	  9.460449	
7.812	  9.429932	
7.8745	  9.445190	
7.93699	  9.323120	
7.99949	  9.338379	
8.06198	  9.368896	
8.12448	  9.292603	
8.18698	  9.323120	
8.24947	  9.384155	
8.31197	  9.338379	
8.37446	  9.384155	
8.43696	  9.323120	
8.49946	  9.277344	
8.56195	  9.353638	
8.62445	  9.307861	
8.68694	  9.368896	
8.74944	  9.460449	
8.81194	  9.399414	
8.87443	  9.475708	
8.93693	  9.414673	
8.99942	  9.429932	
9.06192	  9.414673	
9.12442	  9.414673	
9.18691	  9.475708	
9.24941	  9.445190	
9.3119	  9.445190	
9.3744	  9.445190	
9.4369	  9.399414	
9.49939	  9.292603	
9.56189	  9.338379	
9.62438	  9.277344	
9.68688	  9.307861	
9.74938	  9.384155	
9.81187	  9.353638	
9.87437	  9.368896	
9.93686	  9.338379	
9.99936	  9.262085	
10.0619	  9.307861	
10.1244	  9.262085	
10.1868	  9.384155	
10.2493	  9.506226	
10.3118	  9.429932	
10.3743	  9.506226	
10.4368	  9.475708	
10.4993	  9.338379	
10.5618	  9.490967	
10.6243	  9.399414	
10.6868	  9.429932	
10.7493	  9.460449	
10.8118	  9.323120	
10.8743	  9.429932	
10.9368	  9.353638	
10.9993	  9.277344	
11.0618	  9.323120	
11.1243	  9.277344	
11.1868	  9.323120	
11.2493	  9.399414	
11.3118	  9.323120	
